HIERARCHY
ROOT Hips
{
	OFFSET 0.000000 0.000000 0.000000 
	CHANNELS 6 Xposition Yposition Zposition Zrotation Yrotation Xrotation
	JOINT LeftUpLeg
	{
		OFFSET 1.363060 -1.794630 0.839290 
		CHANNELS 3 Zrotation Yrotation Xrotation
		JOINT LeftLeg
		{
			OFFSET 2.448110 -6.726130 0.000000 
			CHANNELS 3 Zrotation Yrotation Xrotation
			JOINT LeftFoot
			{
				OFFSET 2.562200 -7.039590 0.000000 
				CHANNELS 3 Zrotation Yrotation Xrotation
				JOINT LeftToeBase
				{
					OFFSET 0.157640 -0.433110 2.322550 
					CHANNELS 3 Zrotation Yrotation Xrotation
					End Site
					{
						OFFSET 0.000000 0.000000 0.000000 
					}
				}
			}
		}
	}
	JOINT RightUpLeg
	{
		OFFSET -1.305520 -1.794630 0.839290 
		CHANNELS 3 Zrotation Yrotation Xrotation
		JOINT RightLeg
		{
			OFFSET -2.542530 -6.985550 0.000000 
			CHANNELS 3 Zrotation Yrotation Xrotation
			JOINT RightFoot
			{
				OFFSET -2.568260 -7.056230 0.000000 
				CHANNELS 3 Zrotation Yrotation Xrotation
				JOINT RightToeBase
				{
					OFFSET -0.164730 -0.452590 2.363150 
					CHANNELS 3 Zrotation Yrotation Xrotation
					End Site
					{
						OFFSET 0.000000 0.000000 0.000000 
					}
				}
			}
		}
	}
	JOINT Spine
	{
		OFFSET 0.028270 2.035590 -0.193380 
		CHANNELS 3 Zrotation Yrotation Xrotation
		JOINT Spine1
		{
			OFFSET 0.056720 2.048850 -0.042750 
			CHANNELS 3 Zrotation Yrotation Xrotation
			JOINT Neck1
			{
				OFFSET -0.054170 1.746240 0.172020 
				CHANNELS 3 Zrotation Yrotation Xrotation
				JOINT Head
				{
					OFFSET 0.104070 1.761360 -0.123970 
					CHANNELS 3 Zrotation Yrotation Xrotation
					End Site
					{
						OFFSET 0.000000 0.000000 0.000000 
					}
				}
			}
			JOINT LeftArm
			{
				OFFSET 3.362410 1.200890 -0.311210 
				CHANNELS 3 Zrotation Yrotation Xrotation
				JOINT LeftForeArm
				{
					OFFSET 4.983000 -0.000000 -0.000000 
					CHANNELS 3 Zrotation Yrotation Xrotation
					JOINT LeftHand
					{
						OFFSET 3.483560 -0.000000 -0.000000 
						CHANNELS 3 Zrotation Yrotation Xrotation
						JOINT LeftHandIndex1
						{
							OFFSET 0.715260 -0.000000 -0.000000 
							CHANNELS 3 Zrotation Yrotation Xrotation
							End Site
							{
								OFFSET 0.000000 0.000000 0.000000 
							}
						}
					}
				}
			}
			JOINT RightArm
			{
				OFFSET -3.136600 1.374050 -0.404650 
				CHANNELS 3 Zrotation Yrotation Xrotation
				JOINT RightForeArm
				{
					OFFSET -5.241900 -0.000000 -0.000000 
					CHANNELS 3 Zrotation Yrotation Xrotation
					JOINT RightHand
					{
						OFFSET -3.444170 -0.000000 -0.000000 
						CHANNELS 3 Zrotation Yrotation Xrotation
						JOINT RightHandIndex1
						{
							OFFSET -0.622530 -0.000000 -0.000000 
							CHANNELS 3 Zrotation Yrotation Xrotation
							End Site
							{
								OFFSET 0.000000 0.000000 0.000000 
							}
						}
					}
				}
			}
		}
	}
}
MOTION
Frames: 12
Frame Time: 0.041667
0.354639 17.103445 6.710940 -0.442295 -3.325703 6.852869 -31.879933 -17.158046 7.738654 -1.809941 0.807235 3.894759 -1.715866 20.399511 -12.995158 0.002700 0.333200 0.915400 33.508438 11.931346 -1.789771 0.950222 -6.149903 18.337706 0.123631 -9.006032 -14.720449 -0.030800 1.133300 -3.115700 1.263543 -1.910927 -5.508755 -3.136739 -1.039076 -3.585646 4.176471 2.487242 15.060545 -3.547600 2.402600 12.834300 -104.070786 5.891931 8.643457 23.962567 -34.064092 -4.812654 0.108147 5.185885 17.264852 -7.125000 0.000000 0.000000 97.880825 -0.420647 18.309966 -20.003603 31.197155 -3.399011 -0.907243 -4.020209 9.320728 7.125000 0.000000 0.000000 
0.353889 17.102695 6.711369 -0.454369 -3.341344 6.844560 -31.864970 -17.155608 7.710899 -1.806698 0.834441 3.964116 -1.713416 20.392431 -13.025264 0.002400 0.313400 0.861000 33.526298 11.898910 -1.781439 0.951446 -6.146246 18.330537 0.119626 -8.974034 -14.721599 -0.031100 1.139000 -3.131200 1.264873 -1.912697 -5.510171 -3.100965 -1.040206 -3.582137 4.204015 2.410875 15.101354 -3.519700 2.371000 12.856500 -104.109936 5.933923 8.727389 23.999448 -34.106669 -4.821602 0.116138 5.174889 17.383094 -7.125000 0.000000 0.000000 97.830884 -0.413269 18.855059 -20.204540 31.415436 -3.467853 -0.888941 -4.113286 9.132328 7.125000 0.000000 0.000000 
0.353675 17.103766 6.712011 -0.451530 -3.358651 6.843785 -31.869168 -17.144905 7.699065 -1.805794 0.844054 3.986813 -1.711771 20.387961 -13.040658 0.002300 0.306900 0.843300 33.516356 11.890377 -1.782868 0.952422 -6.142813 18.321463 0.118077 -8.942423 -14.695149 -0.031000 1.136000 -3.123200 1.261168 -1.904112 -5.505430 -3.104951 -1.038298 -3.543088 4.227601 2.339238 15.150739 -3.503100 2.346500 12.895100 -104.108513 5.901600 8.802921 23.938988 -34.052333 -4.799415 0.139256 5.158023 17.490122 -7.125000 0.000000 0.000000 97.837163 -0.360759 19.136368 -20.285529 31.502430 -3.476263 -0.884119 -4.076873 9.227213 7.125000 0.000000 0.000000 
0.353033 17.103445 6.712011 -0.456670 -3.354975 6.846681 -31.858968 -17.153268 7.687893 -1.804638 0.852334 4.007690 -1.708431 20.375574 -13.068433 0.002700 0.334500 0.919000 33.526284 11.893180 -1.776348 0.953655 -6.139819 18.313343 0.118855 -8.952698 -14.699936 -0.030600 1.128300 -3.102000 1.262113 -1.904638 -5.506945 -3.087834 -1.038238 -3.542581 4.255594 2.262566 15.193036 -3.477500 2.316000 12.919900 -104.150538 5.927574 8.806189 23.990999 -34.114314 -4.820912 0.136626 5.169244 17.392882 -7.125000 0.000000 0.000000 97.851245 -0.339961 19.289558 -20.333123 31.536101 -3.467533 -0.889641 -4.000843 9.330649 7.125000 0.000000 0.000000 
0.352604 17.103552 6.712333 -0.458336 -3.360831 6.846197 -31.856344 -17.142112 7.698844 -1.805126 0.845011 3.991264 -1.708609 20.374366 -13.063951 0.002800 0.339600 0.933200 33.528885 11.890018 -1.774079 0.954341 -6.138010 18.308601 0.118518 -8.945945 -14.693108 -0.030500 1.126800 -3.097700 1.262139 -1.903836 -5.506663 -3.071158 -1.038206 -3.530543 4.281157 2.191423 15.237106 -3.454900 2.288700 12.949000 -104.181408 5.937907 8.832529 24.005797 -34.138685 -4.827888 0.140958 5.171982 17.349558 -7.125000 0.000000 0.000000 97.855304 -0.316292 19.506179 -20.421837 31.619552 -3.478370 -0.884412 -3.966662 9.352723 7.125000 0.000000 0.000000 
0.352069 17.103659 6.712547 -0.459573 -3.365552 6.847894 -31.852768 -17.137913 7.697464 -1.805001 0.844989 3.991367 -1.707900 20.371373 -13.068197 0.002900 0.346100 0.950900 33.531680 11.893928 -1.772494 0.955179 -6.136506 18.303997 0.118979 -8.945395 -14.686226 -0.030300 1.124500 -3.091600 1.262315 -1.902689 -5.506680 -3.053874 -1.037912 -3.520572 4.306157 2.122260 15.280217 -3.432900 2.262200 12.977500 -104.214545 5.947802 8.842514 24.019121 -34.162473 -4.835605 0.143217 5.178466 17.273814 -7.125000 0.000000 0.000000 97.867098 -0.296615 19.669175 -20.507470 31.698943 -3.488490 -0.878052 -3.931396 9.348698 7.125000 0.000000 0.000000 
0.351533 17.103766 6.712654 -0.460405 -3.368254 6.849891 -31.850353 -17.128921 7.710442 -1.806046 0.833794 3.964602 -1.708956 20.372883 -13.055584 0.002900 0.349300 0.959600 33.534636 11.899697 -1.772838 0.955445 -6.136618 18.303589 0.119301 -8.946649 -14.683913 -0.030300 1.123000 -3.087200 1.262676 -1.902104 -5.507047 -3.034753 -1.037777 -3.512287 4.329906 2.054374 15.322098 -3.411700 2.236100 13.005700 -104.251991 5.959984 8.833537 24.034151 -34.188536 -4.844644 0.144795 5.187099 17.188370 -7.125000 0.000000 0.000000 97.881319 -0.283420 19.803359 -20.604666 31.791201 -3.505052 -0.867213 -3.910792 9.277296 7.125000 0.000000 0.000000 
0.351105 17.103873 6.712975 -0.460167 -3.369002 6.852111 -31.849883 -17.119066 7.729792 -1.807579 0.817929 3.926307 -1.710883 20.377783 -13.034923 0.002900 0.348000 0.956200 33.535427 11.903621 -1.774740 0.955357 -6.137558 18.305404 0.119286 -8.945930 -14.683346 -0.030200 1.120900 -3.081500 1.262938 -1.901948 -5.507192 -3.015342 -1.037876 -3.502774 4.352792 1.988175 15.362653 -3.391300 2.210600 13.033900 -104.289429 5.968494 8.808856 24.038939 -34.204510 -4.850998 0.148322 5.196027 17.118708 -7.125000 0.000000 0.000000 97.898319 -0.273605 19.911104 -20.710796 31.894948 -3.527653 -0.852856 -3.905531 9.138227 7.125000 0.000000 0.000000 
0.350569 17.104088 6.713189 -0.460531 -3.367469 6.855669 -31.848271 -17.111561 7.748817 -1.809227 0.801547 3.886556 -1.712835 20.383070 -13.014236 0.002900 0.346700 0.952500 33.537581 11.908915 -1.777273 0.955225 -6.138846 18.307699 0.119238 -8.947804 -14.686079 -0.029900 1.116900 -3.070600 1.262909 -1.900904 -5.507057 -2.996779 -1.037680 -3.491708 4.375454 1.921241 15.401789 -3.371000 2.184700 13.061900 -104.325786 5.974319 8.769208 24.034189 -34.210843 -4.854818 0.154254 5.205330 17.081485 -7.125000 0.000000 0.000000 97.919311 -0.264732 19.988701 -20.817925 32.003694 -3.554241 -0.836610 -3.912973 8.940629 7.125000 0.000000 0.000000 
0.350141 17.104195 6.713404 -0.458500 -3.363582 6.859236 -31.849804 -17.108291 7.765626 -1.810669 0.787223 3.851562 -1.714735 20.388760 -12.995694 0.002800 0.342800 0.942000 33.536226 11.910032 -1.779767 0.954973 -6.139568 18.309170 0.119058 -8.948038 -14.689717 -0.029800 1.113500 -3.061200 1.262851 -1.900478 -5.507022 -2.975841 -1.037664 -3.482296 4.398450 1.854772 15.439071 -3.349600 2.158400 13.087500 -104.362569 5.980074 8.717524 24.017774 -34.206220 -4.855726 0.163740 5.214636 17.081677 -7.125000 0.000000 0.000000 97.939374 -0.262391 20.046706 -20.928228 32.115575 -3.583688 -0.818254 -3.928286 8.698207 7.125000 0.000000 0.000000 
0.349712 17.104409 6.713725 -0.460421 -3.358427 6.864040 -31.846337 -17.108167 7.776651 -1.811606 0.776830 3.826017 -1.716240 20.393145 -12.983514 0.002800 0.341900 0.939500 33.540068 11.911734 -1.781726 0.955181 -6.139917 18.309016 0.119042 -8.951763 -14.694372 -0.029600 1.110100 -3.051900 1.262897 -1.900003 -5.506424 -2.955698 -1.037858 -3.469740 4.421223 1.789217 15.475511 -3.328100 2.132200 13.113000 -104.395169 5.983706 8.661587 23.990404 -34.190746 -4.853801 0.175805 5.224856 17.107907 -7.125000 0.000000 0.000000 97.959709 -0.260641 20.084228 -21.032456 32.223486 -3.613350 -0.799992 -3.948466 8.426189 7.125000 0.000000 0.000000 
0.349284 17.104409 6.714046 -0.462060 -3.353276 6.869356 -31.842722 -17.112036 7.779446 -1.811987 0.772308 3.814406 -1.717074 20.396135 -12.976732 0.002800 0.339700 0.933300 33.543949 11.913661 -1.782675 0.955744 -6.139362 18.306290 0.119489 -8.957750 -14.697698 -0.029400 1.106400 -3.041600 1.263131 -1.899627 -5.505803 -2.934063 -1.037795 -3.457825 4.443605 1.724861 15.510948 -3.306200 2.106100 13.137200 -104.425530 5.989026 8.604213 23.954724 -34.167777 -4.850128 0.188990 5.236853 17.150894 -7.125000 0.000000 0.000000 97.978608 -0.262833 20.101170 -21.129193 32.323425 -3.641826 -0.780852 -3.971133 8.144456 7.125000 0.000000 0.000000 
